# MagicaVoxel @ Ephtracy

# group
o 

# material
mtllib House.mtl
usemtl palette

# normals
vn -1 0 0
vn 1 0 0
vn 0 0 1
vn 0 0 -1
vn 0 -1 0
vn 0 1 0

# texcoords
vt 0.0410156 0.5
vt 0.232422 0.5

# verts
v -0.7 0.9 1
v -0.7 0.9 0.8
v -0.7 0.9 -0.9
v -0.7 0.9 -1.1
v -0.7 1 1
v -0.7 1 0.9
v -0.7 1 0.8
v -0.7 1 -0.9
v -0.7 1 -1
v -0.7 1 -1.1
v -0.7 1.1 0.9
v -0.7 1.1 -1
v -0.6 0 0.9
v -0.6 0 -1
v -0.6 0.9 0.9
v -0.6 0.9 0.8
v -0.6 0.9 -0.9
v -0.6 0.9 -1
v -0.6 1 0.8
v -0.6 1 -0.9
v 0.9 0 0.8
v 0.9 0 -0.9
v 0.9 1 0.8
v 0.9 1 -0.9
v -0.5 0 0.8
v -0.5 0 -0.9
v -0.5 1 0.8
v -0.5 1 -0.9
v 1 0 0.9
v 1 0 -1
v 1 0.9 0.9
v 1 0.9 0.8
v 1 0.9 -0.9
v 1 0.9 -1
v 1 1 0.8
v 1 1 -0.9
v 1.1 0.9 1
v 1.1 0.9 0.8
v 1.1 0.9 -0.9
v 1.1 0.9 -1.1
v 1.1 1 1
v 1.1 1 0.9
v 1.1 1 0.8
v 1.1 1 -0.9
v 1.1 1 -1
v 1.1 1 -1.1
v 1.1 1.1 0.9
v 1.1 1.1 -1
v -0.7 0.9 1
v -0.7 1 1
v 1.1 0.9 1
v 1.1 1 1
v -0.7 1 0.9
v -0.7 1.1 0.9
v -0.6 0 0.9
v -0.6 0.9 0.9
v 1 0 0.9
v 1 0.9 0.9
v 1.1 1 0.9
v 1.1 1.1 0.9
v -0.7 0.9 -0.9
v -0.7 1 -0.9
v -0.6 0.9 -0.9
v -0.6 1 -0.9
v -0.5 0 -0.9
v -0.5 1 -0.9
v 0.9 0 -0.9
v 0.9 1 -0.9
v 1 0.9 -0.9
v 1 1 -0.9
v 1.1 0.9 -0.9
v 1.1 1 -0.9
v -0.7 0.9 0.8
v -0.7 1 0.8
v -0.6 0.9 0.8
v -0.6 1 0.8
v -0.5 0 0.8
v -0.5 1 0.8
v 0.9 0 0.8
v 0.9 1 0.8
v 1 0.9 0.8
v 1 1 0.8
v 1.1 0.9 0.8
v 1.1 1 0.8
v -0.7 1 -1
v -0.7 1.1 -1
v -0.6 0 -1
v -0.6 0.9 -1
v 1 0 -1
v 1 0.9 -1
v 1.1 1 -1
v 1.1 1.1 -1
v -0.7 0.9 -1.1
v -0.7 1 -1.1
v 1.1 0.9 -1.1
v 1.1 1 -1.1
v -0.6 0 0.9
v 1 0 0.9
v -0.5 0 0.8
v 0.9 0 0.8
v -0.5 0 -0.9
v 0.9 0 -0.9
v -0.6 0 -1
v 1 0 -1
v -0.7 0.9 1
v 1.1 0.9 1
v -0.6 0.9 0.9
v 1 0.9 0.9
v -0.7 0.9 0.8
v -0.6 0.9 0.8
v 1 0.9 0.8
v 1.1 0.9 0.8
v -0.7 0.9 -0.9
v -0.6 0.9 -0.9
v 1 0.9 -0.9
v 1.1 0.9 -0.9
v -0.6 0.9 -1
v 1 0.9 -1
v -0.7 0.9 -1.1
v 1.1 0.9 -1.1
v -0.7 1 0.8
v -0.6 1 0.8
v -0.5 1 0.8
v 0.9 1 0.8
v 1 1 0.8
v 1.1 1 0.8
v -0.7 1 -0.9
v -0.6 1 -0.9
v -0.5 1 -0.9
v 0.9 1 -0.9
v 1 1 -0.9
v 1.1 1 -0.9
v -0.7 1 1
v 1.1 1 1
v -0.7 1 0.9
v 1.1 1 0.9
v -0.7 1 -1
v 1.1 1 -1
v -0.7 1 -1.1
v 1.1 1 -1.1
v -0.7 1.1 0.9
v 1.1 1.1 0.9
v -0.7 1.1 -1
v 1.1 1.1 -1

# faces
f 5/1/1 2/1/1 1/1/1
f 6/1/1 2/1/1 5/1/1
f 7/1/1 2/1/1 6/1/1
f 8/1/1 4/1/1 3/1/1
f 9/1/1 4/1/1 8/1/1
f 10/1/1 4/1/1 9/1/1
f 11/1/1 7/1/1 6/1/1
f 11/1/1 9/1/1 8/1/1
f 11/1/1 8/1/1 7/1/1
f 12/1/1 9/1/1 11/1/1
f 15/2/1 14/2/1 13/2/1
f 16/2/1 14/2/1 15/2/1
f 17/2/1 14/2/1 16/2/1
f 18/2/1 14/2/1 17/2/1
f 19/2/1 17/2/1 16/2/1
f 20/2/1 17/2/1 19/2/1
f 23/2/1 22/2/1 21/2/1
f 24/2/1 22/2/1 23/2/1
f 25/2/2 26/2/2 27/2/2
f 27/2/2 26/2/2 28/2/2
f 29/2/2 30/2/2 31/2/2
f 31/2/2 30/2/2 32/2/2
f 32/2/2 30/2/2 33/2/2
f 33/2/2 30/2/2 34/2/2
f 32/2/2 33/2/2 35/2/2
f 35/2/2 33/2/2 36/2/2
f 37/1/2 38/1/2 41/1/2
f 41/1/2 38/1/2 42/1/2
f 42/1/2 38/1/2 43/1/2
f 39/1/2 40/1/2 44/1/2
f 44/1/2 40/1/2 45/1/2
f 45/1/2 40/1/2 46/1/2
f 42/1/2 43/1/2 47/1/2
f 44/1/2 45/1/2 47/1/2
f 43/1/2 44/1/2 47/1/2
f 47/1/2 45/1/2 48/1/2
f 51/1/3 50/1/3 49/1/3
f 52/1/3 50/1/3 51/1/3
f 57/2/3 56/2/3 55/2/3
f 58/2/3 56/2/3 57/2/3
f 59/1/3 54/1/3 53/1/3
f 60/1/3 54/1/3 59/1/3
f 63/1/3 62/1/3 61/1/3
f 64/1/3 62/1/3 63/1/3
f 67/2/3 66/2/3 65/2/3
f 68/2/3 66/2/3 67/2/3
f 71/1/3 70/1/3 69/1/3
f 72/1/3 70/1/3 71/1/3
f 73/1/4 74/1/4 75/1/4
f 75/1/4 74/1/4 76/1/4
f 77/2/4 78/2/4 79/2/4
f 79/2/4 78/2/4 80/2/4
f 81/1/4 82/1/4 83/1/4
f 83/1/4 82/1/4 84/1/4
f 87/2/4 88/2/4 89/2/4
f 89/2/4 88/2/4 90/2/4
f 85/1/4 86/1/4 91/1/4
f 91/1/4 86/1/4 92/1/4
f 93/1/4 94/1/4 95/1/4
f 95/1/4 94/1/4 96/1/4
f 99/2/5 98/2/5 97/2/5
f 100/2/5 98/2/5 99/2/5
f 101/2/5 99/2/5 97/2/5
f 102/2/5 98/2/5 100/2/5
f 103/2/5 101/2/5 97/2/5
f 103/2/5 102/2/5 101/2/5
f 104/2/5 98/2/5 102/2/5
f 104/2/5 102/2/5 103/2/5
f 107/1/5 106/1/5 105/1/5
f 108/1/5 106/1/5 107/1/5
f 109/1/5 107/1/5 105/1/5
f 110/1/5 107/1/5 109/1/5
f 111/1/5 106/1/5 108/1/5
f 112/1/5 106/1/5 111/1/5
f 117/1/5 114/1/5 113/1/5
f 118/1/5 116/1/5 115/1/5
f 119/1/5 117/1/5 113/1/5
f 119/1/5 118/1/5 117/1/5
f 120/1/5 116/1/5 118/1/5
f 120/1/5 118/1/5 119/1/5
f 127/1/5 122/1/5 121/1/5
f 128/1/5 122/1/5 127/1/5
f 129/1/5 124/1/5 123/1/5
f 130/1/5 124/1/5 129/1/5
f 131/1/5 126/1/5 125/1/5
f 132/1/5 126/1/5 131/1/5
f 133/1/6 134/1/6 135/1/6
f 135/1/6 134/1/6 136/1/6
f 137/1/6 138/1/6 139/1/6
f 139/1/6 138/1/6 140/1/6
f 141/1/6 142/1/6 143/1/6
f 143/1/6 142/1/6 144/1/6
